<svg viewBox="0 0 29 29" fill="none" xmlns="http://www.w3.org/2000/svg">
    <path d="M28 21V18H27V19H26V17H24V16H23V13H22V16H21V10H22L19 4V3L22 1.5L19 0H18V4L15 10H16V16H13V13H14L11 7V6L14 4.5L11 3H10V7L7 13H8V16H6V13H5V16H4V18H3V19H2V18H1V21H0V29H11H18H29V21H28ZM21 17H23V18H25V19H21V17ZM17 10H20V19H19V17H17V10ZM9 13H12V17H10V19H9V13ZM5 28H1V22H2V20H5V28ZM5 17H8V19H5V17ZM11 28V25.5C11 23.737 12.306 22.295 14 22.051V28H11ZM18 28H15V22.051C16.694 22.295 18 23.738 18 25.5V28ZM23 28H19V25.5C19 23.019 16.981 21 14.5 21C12.019 21 10 23.019 10 25.5V28H6V20H11V18H18V20H23V28ZM28 28H24V20H27V22H28V28Z" fill="black"/>
    <path d="M4 24H2V25H4V24Z" fill="black"/>
    <path d="M27 24H25V25H27V24Z" fill="black"/>
    <path d="M9 22H7V23H9V22Z" fill="black"/>
    <path d="M22 22H20V23H22V22Z" fill="black"/>
    <path d="M16 19H13V20H16V19Z" fill="black"/>
</svg>
